<?xml version="1.0" encoding="utf-8"?>
<!-- Generator: Adobe Illustrator 26.0.1, SVG Export Plug-In . SVG Version: 6.00 Build 0)  -->
<svg version="1.1" id="Capa_1" xmlns="http://www.w3.org/2000/svg" xmlns:xlink="http://www.w3.org/1999/xlink" x="0px" y="0px"
	 viewBox="0 0 576.6 576.6" style="enable-background:new 0 0 576.6 576.6;" xml:space="preserve">
<style type="text/css">
	.st0{fill:#FFFFFF;}
</style>
<g>
	<path class="st0" d="M129,407.9h-3.3h-16.9h-2.9c-4.6,0-8.3,3.7-8.3,8.3v16.5c0,4.6,3.7,8.3,8.3,8.3h2.9H129c4.6,0,8.3-3.7,8.3-8.3
		v-13.2v-3.3C137.3,411.6,133.6,407.9,129,407.9z"/>
	<path class="st0" d="M441.1,441l0.2-21.5v-3.3c0-8.2,6.7-14.9,14.9-14.9h18.2v-6.6v-6.9l-0.1-0.8c-0.1-0.6-10.2-47.6-70.6-52.8
		l-64-74.2c0,0-144.3-14.2-195.4,44.6c-10.3,11.9-17.5,23.5-22.7,34.7c-3.8-2.6-7.9-7.2-11.2-11.4c-7.4-14.9-9.7-29.5-6.7-43.4
		c6.7-31.5,38.1-50.2,38.4-50.4l-6.7-11.4c-1.5,0.9-36.6,21.7-44.6,58.9c-4.6,21.4,0.8,43.6,16,66l7,13.3c-4.5,15.6-5.1,28.8-5,40.4
		H129c8.2,0,14.9,6.7,14.9,14.9v16.5c0,3.1-0.9,5.9-2.5,8.3h23c3.3,21.1,21.5,37.2,43.5,37.2S248,462,251.3,441h13.6h61.3
		c3.3,21.1,21.5,37.2,43.5,37.2c22,0,40.2-16.1,43.5-37.2H441.1z M150.5,325c0,0,26.4-33.2,99.1-42.5v59.3h-99.1V325z M207.8,460.1
		c-12,0-21.9-8.1-25-19.1c-0.6-2.2-1.1-4.5-1.1-6.9c0-14.4,11.7-26,26-26c14.4,0,26,11.7,26,26c0,2.4-0.4,4.7-1.1,6.9
		C229.7,452,219.8,460.1,207.8,460.1z M452.6,363.9C452.6,363.9,452.6,363.9,452.6,363.9c10.6,11.3,14.3,21.8,15,24.2h-29h-3.7
		C435.4,375.1,439.7,369.4,452.6,363.9z M269.4,281.1c52.9-4.7,58.7-2.7,58.7-2.7l33.9,39l-8.1,24.4h-84.5V281.1z M369.8,460.1
		c-12,0-21.9-8.1-25-19.1c-0.6-2.2-1.1-4.5-1.1-6.9c0-14.4,11.7-26,26-26c14.4,0,26,11.7,26,26c0,2.4-0.4,4.7-1.1,6.9
		C391.7,452,381.7,460.1,369.8,460.1z"/>
	<path class="st0" d="M476,407.9h-1.7h-18.2c-4.6,0-8.3,3.7-8.3,8.3v16.5c0,4.6,3.7,8.3,8.3,8.3h18.2h5c4.6,0,8.3-3.7,8.3-8.3v-13.2
		C487.5,413.1,482.3,407.9,476,407.9z"/>
	<path class="st0" d="M164.6,249.7c3.5,5.5,12.2,6.3,17.7,2.9l80.6-37.1l1.6,2.5c2.1,3.4,6.7,4.4,10.1,2.3l0.8-0.5
		c3.4-2.1,4.4-6.7,2.3-10.1l-7.8-12.3l0,0l-23.7-37.6l-31.5-49.9c-2.1-3.4-6.7-4.4-10.1-2.3l-0.8,0.5c-3.4,2.1-4.4,6.7-2.3,10.1
		l1.6,2.5l-68.2,56.6c-5.5,3.5-8.6,11.7-5.1,17.2L164.6,249.7z M225.6,185.5c-5.1,3.2-11.8,1.7-15-3.4c-3.2-5.1-1.7-11.8,3.4-15
		c5.1-3.2,11.8-1.7,15,3.4C232.2,175.6,230.7,182.3,225.6,185.5z M176,171.7l5.7-3.6c2.1-1.3,4.8-0.7,6.1,1.4l24.4,38.7
		c1.3,2.1,0.7,4.8-1.4,6.1l-5.7,3.6c-2.1,1.3-4.8,0.7-6.1-1.4l-24.4-38.7C173.3,175.7,173.9,173,176,171.7z M156.2,184.1l5.7-3.6
		c2.1-1.3,4.8-0.7,6.1,1.4l24.4,38.7c1.3,2.1,0.7,4.8-1.4,6.1l-5.7,3.6c-2.1,1.3-4.8,0.7-6.1-1.4l-24.4-38.7
		C153.5,188.2,154.1,185.5,156.2,184.1z"/>
	<path class="st0" d="M242.4,139.1l42.6-26.8c2.8-1.7,2.6-7,0.9-9.8c-1.7-2.8-6.4-5.2-9.2-3.4l-42.6,26.8L242.4,139.1z"/>
	<path class="st0" d="M314.1,158.4c2.8-1.7,2.6-7,0.9-9.8c-1.7-2.8-6.4-5.2-9.2-3.4l-42.6,26.8l8.3,13.2L314.1,158.4z"/>
</g>
</svg>
