<?xml version="1.0" encoding="utf-8"?>
<!-- Generator: Adobe Illustrator 26.0.1, SVG Export Plug-In . SVG Version: 6.00 Build 0)  -->
<svg version="1.1" id="Capa_1" xmlns="http://www.w3.org/2000/svg" xmlns:xlink="http://www.w3.org/1999/xlink" x="0px" y="0px"
	 viewBox="0 0 489.9 489.9" style="enable-background:new 0 0 489.9 489.9;" xml:space="preserve">
<style type="text/css">
	.st0{fill:#FFFFFF;}
</style>
<g>
	<g>
		<path class="st0" d="M202.4,225c23.5-30,60.1-49.3,101.3-49.3c6.1,0,12.2,0.4,18.2,1.3v-27.4c-18.6,16.7-66.8,28.6-123.4,28.6
			c-56.3,0-104.3-11.8-123.1-28.4V185C84.7,223.5,201.1,225.1,202.4,225z"/>
		<path class="st0" d="M75.2,212.6l-0.1,35.9c4.5,19.9,46.5,36.1,100.9,39.6c2.1-16.9,7.5-32.9,15.6-47.1
			C138.3,240.1,93.2,228.6,75.2,212.6z"/>
		<path class="st0" d="M75.2,276.3l-0.1,34.1c0.2-0.2,0.4-0.4,0.6-0.6c1.3,22,48.3,40,108.7,42.6c-6.1-14.9-9.3-31.1-9.3-48.2v-0.1
			C129,301.4,91.2,290.7,75.2,276.3z"/>
		<path class="st0" d="M192.4,368.7c-54.5-0.9-100.2-13-117.3-29.4L75,371.5c0,24.2,55.2,43.9,123.4,43.9c13,0,25.6-0.7,37.3-2
			C217.9,402.2,203,386.9,192.4,368.7z"/>
		<ellipse class="st0" cx="198.4" cy="118.2" rx="123.5" ry="43.8"/>
		<path class="st0" d="M303.7,192.9c-61.5,0-111.3,49.9-111.3,111.3s49.9,111.3,111.3,111.3S415,365.7,415,304.2
			S365.1,192.9,303.7,192.9z M313.8,363.6v7c0,5.6-4.5,10.2-10.2,10.2c-5.6,0-10.2-4.5-10.2-10.2v-7c-5.9-1.8-11.4-5.1-15.7-9.7
			c-3.8-4.1-3.6-10.5,0.4-14.3c4.1-3.8,10.3-3.4,14.3,0.4c4.5,4.2,11.8,4.7,12.2,4.7c7.9-0.6,14.1-7.2,14.1-15.2
			c0-8.4-6.8-15.3-15.2-15.3c-19.6,0-35.5-15.9-35.5-35.5c0-16.1,10.7-29.7,25.3-34.1v-7c0-5.6,4.5-10.2,10.2-10.2
			c5.6,0,10.2,4.5,10.2,10.2v7c5.9,1.8,11.4,5.1,15.7,9.7c3.8,4.1,3.6,10.5-0.4,14.3c-4.1,3.8-10.9,4-14.3-0.4
			c-3.7-4.7-11.8-4.7-12.2-4.7c-7.9,0.6-14.1,7.2-14.1,15.2c0,8.4,6.8,15.3,15.2,15.3c19.6,0,35.5,15.9,35.5,35.5
			C339.2,345.7,328.4,359.3,313.8,363.6z"/>
	</g>
</g>
</svg>
