<?xml version="1.0" encoding="utf-8"?>
<!-- Generator: Adobe Illustrator 26.0.1, SVG Export Plug-In . SVG Version: 6.00 Build 0)  -->
<svg version="1.1" id="Capa_1" xmlns="http://www.w3.org/2000/svg" xmlns:xlink="http://www.w3.org/1999/xlink" x="0px" y="0px"
	 viewBox="0 0 260.8 260.8" style="enable-background:new 0 0 260.8 260.8;" xml:space="preserve">
<style type="text/css">
	.st0{fill:#FFFFFF;}
</style>
<g>
	<path class="st0" d="M172.5,50.8c-22-14.6-49.4-16.6-75.1-5.7c-16.1,6.9-28.8,19.3-35.9,35c-7.3,16.4-9.4,33.7-6.1,50
		c3.2,15.3,10.8,29.1,22.2,39.9c10.6,10.1,16.7,24.5,16.7,39.6v15.5c0,4.3,1.9,8.3,5.3,10.9l11.4,9.1c0.5,0.4,0.7,0.9,0.7,1.6
		c0,7.7,6.3,14,14,14h9.2c7.7,0,14-6.3,14-14c0-0.6,0.3-1.2,0.7-1.6L161,236c3.3-2.7,5.3-6.7,5.3-10.9v-15.5c0-15,6.2-29.5,17-39.8
		c15.2-14.6,23.5-34.2,23.5-55.2C206.9,88.9,194,65,172.5,50.8L172.5,50.8z M137,246.8c0,1.1-0.9,2-2,2h-9.2c-1.1,0-2-0.9-2-2
		c0-4.3-1.9-8.3-5.3-10.9l-11.4-9.1c-0.5-0.4-0.7-0.9-0.7-1.6v-9.7h48v9.7c0,0.6-0.3,1.2-0.7,1.6l-11.4,9.1
		C138.9,238.5,137,242.5,137,246.8L137,246.8z M154.7,203.5h-48.6c-1.5-16.1-8.6-31.1-20.1-42.1C65.4,141.8,60.2,112.5,72.5,85
		c5.8-12.9,16.3-23.2,29.6-28.9c9.4-4,19-6,28.3-6c12.6,0,24.8,3.6,35.4,10.6c18.2,12,29,32.1,29,53.9c0,17.7-7,34.2-19.8,46.5
		C163.4,172.4,156.2,187.5,154.7,203.5z"/>
	<path class="st0" d="M130.4,29.3c3.3,0,6-2.7,6-6V6c0-3.3-2.7-6-6-6s-6,2.7-6,6v17.3C124.4,26.6,127.1,29.3,130.4,29.3z"/>
	<path class="st0" d="M203,33.6l-12.3,12.3c-2.3,2.3-2.3,6.1,0,8.5c1.2,1.2,2.7,1.8,4.2,1.8s3.1-0.6,4.2-1.8l12.3-12.3
		c2.3-2.3,2.3-6.1,0-8.5C209.1,31.2,205.3,31.2,203,33.6z"/>
	<path class="st0" d="M239.1,108.7h-17.3c-3.3,0-6,2.7-6,6s2.7,6,6,6h17.3c3.3,0,6-2.7,6-6S242.4,108.7,239.1,108.7z"/>
	<path class="st0" d="M199.2,175c-2.3-2.3-6.1-2.3-8.5,0c-2.3,2.3-2.3,6.1,0,8.5l12.3,12.3c1.2,1.2,2.7,1.8,4.2,1.8s3.1-0.6,4.2-1.8
		c2.3-2.3,2.3-6.1,0-8.5L199.2,175L199.2,175z"/>
	<path class="st0" d="M61.5,175l-12.3,12.3c-2.3,2.3-2.3,6.1,0,8.5c1.2,1.2,2.7,1.8,4.2,1.8s3.1-0.6,4.2-1.8L70,183.5
		c2.3-2.3,2.3-6.1,0-8.5S63.9,172.7,61.5,175z"/>
	<path class="st0" d="M39,108.7H21.7c-3.3,0-6,2.7-6,6s2.7,6,6,6H39c3.3,0,6-2.7,6-6S42.3,108.7,39,108.7z"/>
	<path class="st0" d="M61.5,54.3c1.2,1.2,2.7,1.8,4.2,1.8s3.1-0.6,4.2-1.8c2.3-2.3,2.3-6.1,0-8.5L57.8,33.6c-2.3-2.3-6.1-2.3-8.5,0
		s-2.3,6.1,0,8.5L61.5,54.3z"/>
	<g>
		<g>
			<g>
				<path class="st0" d="M130,101.1c-6.3,0-11.4,5.1-11.4,11.4s5.1,11.4,11.4,11.4s11.4-5.1,11.4-11.4S136.3,101.1,130,101.1z
					 M130,119.7c-4,0-7.2-3.2-7.2-7.2s3.2-7.2,7.2-7.2s7.2,3.2,7.2,7.2S134,119.7,130,119.7z"/>
				<path class="st0" d="M167.3,120.9l-6.4-5.8v-5.2l6.4-5.8c0.7-0.6,0.9-1.5,0.5-2.4l-3.4-8.3c-0.3-0.8-1.2-1.3-2.1-1.3l-8.7,0.4
					l-3.7-3.7l0.4-8.7c0-0.9-0.5-1.7-1.3-2.1l-8.3-3.4c-0.8-0.3-1.8-0.1-2.4,0.5l-5.8,6.4h-5.2l-5.8-6.4c-0.6-0.7-1.5-0.9-2.4-0.5
					l-8.3,3.4c-0.8,0.3-1.3,1.2-1.3,2.1l0.4,8.7l-3.7,3.7l-8.7-0.4c-0.9,0-1.7,0.5-2.1,1.3l-3.4,8.3c-0.3,0.8-0.1,1.8,0.5,2.4
					l6.4,5.8v5.2l-6.4,5.8c-0.7,0.6-0.9,1.5-0.5,2.4l3.4,8.3c0.3,0.8,1.2,1.3,2.1,1.3l8.7-0.4l3.7,3.7l-0.4,8.7
					c0,0.9,0.5,1.7,1.3,2.1l8.3,3.4c0.8,0.3,1.8,0.1,2.4-0.5l5.8-6.4h5.2l5.8,6.4c0.4,0.5,1,0.7,1.6,0.7c0.3,0,0.5-0.1,0.8-0.2
					l8.3-3.4c0.8-0.3,1.3-1.2,1.3-2.1l-0.4-8.7l3.7-3.7l8.7,0.4c0.9,0,1.7-0.5,2.1-1.3l3.4-8.3C168.2,122.5,168,121.5,167.3,120.9z
					 M161.1,128.6l-8.1-0.4c-0.6,0-1.2,0.2-1.6,0.6l-5,5c-0.4,0.4-0.6,1-0.6,1.6l0.4,8.1l-5.6,2.3l-5.5-6c-0.4-0.4-1-0.7-1.6-0.7
					h-7.1c-0.6,0-1.2,0.3-1.6,0.7l-5.5,6l-5.6-2.3l0.4-8.1c0-0.6-0.2-1.2-0.6-1.6l-5-5c-0.4-0.4-1-0.6-1.6-0.6l-8.1,0.4l-2.3-5.6
					l6-5.5c0.4-0.4,0.7-1,0.7-1.6V109c0-0.6-0.3-1.2-0.7-1.6l-6-5.5l2.3-5.6l8.1,0.4c0.6,0,1.2-0.2,1.6-0.6l5-5
					c0.4-0.4,0.6-1,0.6-1.6l-0.4-8.1l5.6-2.3l5.5,6c0.4,0.4,1,0.7,1.6,0.7h7.1c0.6,0,1.2-0.3,1.6-0.7l5.5-6l5.6,2.3l-0.4,8.1
					c0,0.6,0.2,1.2,0.6,1.6l5,5c0.4,0.4,1,0.6,1.6,0.6l8.1-0.4l2.3,5.6l-6,5.5c-0.4,0.4-0.7,1-0.7,1.6v7.1c0,0.6,0.3,1.2,0.7,1.6
					l6,5.5L161.1,128.6z"/>
				<path class="st0" d="M130,92.6c-11,0-19.9,8.9-19.9,19.9s8.9,19.9,19.9,19.9s19.9-8.9,19.9-19.9S141,92.6,130,92.6z M130,128.2
					c-8.7,0-15.7-7-15.7-15.7s7-15.7,15.7-15.7s15.7,7,15.7,15.7S138.7,128.2,130,128.2z"/>
			</g>
		</g>
	</g>
</g>
</svg>
