<?xml version="1.0" encoding="utf-8"?>
<!-- Generator: Adobe Illustrator 26.0.1, SVG Export Plug-In . SVG Version: 6.00 Build 0)  -->
<svg version="1.1" id="Capa_1" xmlns="http://www.w3.org/2000/svg" xmlns:xlink="http://www.w3.org/1999/xlink" x="0px" y="0px"
	 viewBox="0 0 2428.8 684.4" style="enable-background:new 0 0 2428.8 684.4;" xml:space="preserve">
<style type="text/css">
	.st0{fill:#FFFFFF;}
	.st1{clip-path:url(#SVGID_00000124874267388985710800000006982718785631734684_);}
	.st2{fill:url(#SVGID_00000114775285922114708350000014972497384218282151_);}
	.st3{clip-path:url(#SVGID_00000081643790979699647350000018414650284322661259_);}
	.st4{fill:url(#SVGID_00000015349399168846360750000002877091227579842457_);}
	.st5{clip-path:url(#SVGID_00000156576829481437601470000012227807239898816157_);}
	.st6{fill:url(#SVGID_00000057141329456938807870000015144707254756752288_);}
</style>
<g id="Capa_2_00000132769363261977044750000014277222770589467032_">
	<g id="Capa_1-2">
		<path class="st0" d="M779.1,349.2v29.2h34v22.1c-8.6,6.2-19.2,9.3-31.8,9.3c-6.4,0.1-12.8-1.2-18.8-3.6
			c-5.6-2.4-10.6-5.8-14.7-10.2c-4.2-4.5-7.5-9.8-9.7-15.5c-2.3-6.2-3.5-12.9-3.4-19.5v-0.4c-0.1-6.4,1.1-12.7,3.4-18.6
			c2.2-5.6,5.4-10.8,9.5-15.2c4-4.3,8.8-7.8,14.1-10.3c5.4-2.6,11.3-3.9,17.2-3.9c4.1,0,8.1,0.4,12.1,1.1c3.5,0.7,6.9,1.7,10.2,3.1
			c3.2,1.3,6.2,2.9,9.2,4.8c3.1,2,6,4.2,8.8,6.6l21.3-25.8c-3.9-3.3-8-6.3-12.3-9c-4.3-2.7-8.9-4.9-13.6-6.6
			c-5.1-1.8-10.3-3.1-15.7-4c-6.2-1-12.5-1.5-18.8-1.5c-11.1-0.1-22.1,2-32.3,6.3c-9.5,4-18.2,9.8-25.5,17.1
			c-14.8,14.9-23,35.1-22.9,56.1v0.4c-0.1,10.8,1.9,21.6,5.9,31.6c3.8,9.4,9.4,17.9,16.6,25.1c7.3,7.2,16,12.8,25.5,16.5
			c10.4,4.1,21.6,6.1,32.8,5.9c14.1,0,26.6-2.4,37.5-7.1c10.2-4.3,19.7-10.1,28.2-17.2v-66.8L779.1,349.2L779.1,349.2z"/>
		<path class="st0" d="M1046.6,329.5c-3.9-9.4-9.7-17.9-16.9-25c-7.4-7.2-16.2-13-25.8-16.9c-21.1-8.4-44.5-8.4-65.6,0
			c-19.4,7.8-34.9,23.1-43,42.4c-4.1,9.8-6.2,20.3-6.1,30.9v0.4c-0.1,10.6,1.9,21.1,6,30.9c3.9,9.4,9.6,17.9,16.9,25.1
			c7.4,7.2,16.2,13,25.8,16.9c10.4,4.3,21.5,6.4,32.7,6.3c11.3,0.1,22.4-2,32.8-6.3c9.7-3.9,18.6-9.7,26-17.1
			c7.2-7.3,13-15.8,17-25.3c4.1-9.8,6.2-20.3,6.2-30.9v-0.5C1052.7,349.8,1050.6,339.3,1046.6,329.5 M1017.3,361.3
			c0.1,6.4-1.1,12.7-3.4,18.6c-2.2,5.6-5.4,10.8-9.4,15.2c-4.1,4.4-9.1,8-14.6,10.3c-5.9,2.5-12.3,3.8-18.7,3.7
			c-6.5,0.1-12.9-1.2-18.8-3.8c-5.5-2.5-10.5-6-14.7-10.4s-7.5-9.7-9.7-15.4c-2.3-6-3.4-12.3-3.4-18.7v-0.5c0-6.3,1.1-12.6,3.4-18.5
			c2.2-5.6,5.4-10.8,9.4-15.3c4.1-4.4,9-7.9,14.5-10.3c5.9-2.5,12.3-3.8,18.8-3.8c19.2-0.1,36.4,11.8,43.2,29.7
			c2.3,5.9,3.5,12.3,3.4,18.6V361.3z"/>
		<polygon class="st0" points="1134.1,407.2 1134.1,284 1100.3,284 1100.3,437.7 1210.8,437.7 1210.8,407.2 		"/>
		<path class="st0" d="M1389.6,330.2c-3.9-9.2-9.6-17.4-16.8-24.3c-7.5-7-16.4-12.5-26-16.2c-10.5-4-21.7-5.9-33-5.8h-60v153.8h60
			c11.3,0.1,22.5-1.9,33-5.9c9.6-3.7,18.5-9.2,26-16.3c7.2-6.9,13-15.2,16.8-24.4c4-9.6,6-19.9,5.9-30.3v-0.5
			C1395.6,350,1393.6,339.7,1389.6,330.2 M1360.2,361.3c0.1,6.4-1.1,12.7-3.4,18.7c-2.2,5.4-5.4,10.3-9.4,14.5
			c-4.1,4.2-9.1,7.4-14.6,9.5c-6,2.2-12.4,3.4-18.9,3.3h-26.1v-92.7h26.1c6.5-0.1,12.9,1.1,18.9,3.4c5.5,2.1,10.4,5.4,14.6,9.5
			c4.1,4.2,7.3,9.2,9.4,14.7c2.3,5.9,3.5,12.3,3.4,18.6V361.3z"/>
		<polygon class="st0" points="1476.6,407.7 1476.6,375.3 1549.1,375.3 1549.1,345.3 1476.6,345.3 1476.6,314.1 1558.9,314.1 
			1558.9,284 1443.2,284 1443.2,437.7 1560.1,437.7 1560.1,407.7 		"/>
		<polygon class="st0" points="1711.2,284 1711.2,378.6 1639.2,284 1608,284 1608,437.7 1641.3,437.7 1641.3,339.9 1715.8,437.7 
			1744.6,437.7 1744.6,284 		"/>
		<path class="st0" d="M1945.8,330.3c-3.5-9.3-8.8-17.9-15.6-25.2c-14.5-15.5-34.8-24.1-56-23.9c-11-0.1-21.9,2.1-31.9,6.5
			c-9.2,4.1-17.5,10-24.3,17.4s-12.1,16-15.7,25.4c-3.7,9.6-5.6,19.9-5.6,30.2v0.4c-0.1,10.3,1.8,20.5,5.5,30.1
			c3.5,9.3,8.8,17.8,15.6,25.1c6.8,7.3,15.1,13.2,24.2,17.4c9.4,4.3,20,6.5,31.7,6.5c10.9,0.1,21.7-2.1,31.7-6.5
			c9.3-4.1,17.6-10.1,24.5-17.5c6.8-7.4,12.1-16,15.7-25.4c3.8-9.6,5.7-19.9,5.6-30.2c0.1-0.1,0.1-0.3,0-0.4l0,0
			C1951.4,350.1,1949.5,339.9,1945.8,330.3 M1939.4,361.3c0.1,9.2-1.6,18.3-4.8,26.8c-3.1,8.1-7.7,15.5-13.5,21.9
			c-5.8,6.3-12.8,11.3-20.6,14.7c-16.8,7.2-35.8,7.2-52.6-0.1c-7.8-3.5-14.9-8.6-20.7-14.8c-5.9-6.4-10.5-13.9-13.6-22
			c-3.4-8.6-5-17.7-5-26.9v-0.4c-0.1-9.1,1.6-18.2,4.9-26.8c3-8.1,7.6-15.5,13.5-21.9c5.8-6.2,12.9-11.2,20.6-14.7
			c16.8-7.2,35.8-7.1,52.6,0.1c7.8,3.5,14.9,8.6,20.8,14.9c5.9,6.4,10.5,13.9,13.6,22c3.3,8.6,5,17.7,4.9,26.9L1939.4,361.3z"/>
		<path class="st0" d="M2077.2,282.9h-11l-71.6,154.9h11.9l19.5-43.1h90.7l19.6,43.1h12.5L2077.2,282.9z M2030.9,384.4l40.6-89
			l40.4,89H2030.9z"/>
		<polygon class="st0" points="2256.7,351.8 2323.9,284 2308.3,284 2210.3,385 2210.3,284 2198.9,284 2198.9,437.7 2210.3,437.7 
			2210.3,398.6 2248.5,360 2311.8,437.7 2326.8,437.7 		"/>
		<g>
			<g>
				<defs>
					<path id="SVGID_1_" d="M544.7,218.2c20.3,38.3,62.2,145.4-37,247.2c-95.6,98.1-225.8,47.7-274.7-21.3
						c-5.9-8.3-13.1-25.6-17.1-26.4c-7.1,6-0.2,34.9,8.1,50.9c90.7,176,287.4,128.1,347,2.5c54.8-115.4,1.2-217.3-24.6-253.9
						c-0.2-0.3-0.5-0.4-0.8-0.4c-0.6,0-1,0.4-1,1C544.6,217.9,544.6,218.1,544.7,218.2"/>
				</defs>
				<clipPath id="SVGID_00000085963428419392658880000011489713085231306632_">
					<use xlink:href="#SVGID_1_"  style="overflow:visible;"/>
				</clipPath>
				<g style="clip-path:url(#SVGID_00000085963428419392658880000011489713085231306632_);">
					
						<linearGradient id="SVGID_00000017508639236420874780000006461868036750837898_" gradientUnits="userSpaceOnUse" x1="10085.0977" y1="475.1171" x2="10087.5176" y2="475.1171" gradientTransform="matrix(-184.0005 67.8449 67.8449 184.0005 1824129.75 -771318.1875)">
						<stop  offset="0" style="stop-color:#DEDEDE"/>
						<stop  offset="1.000000e-02" style="stop-color:#FFFFFF;stop-opacity:0"/>
						<stop  offset="0.17" style="stop-color:#FFFFFF;stop-opacity:0.25"/>
						<stop  offset="0.33" style="stop-color:#FFFFFF;stop-opacity:0.47"/>
						<stop  offset="0.49" style="stop-color:#FFFFFF;stop-opacity:0.66"/>
						<stop  offset="0.64" style="stop-color:#FFFFFF;stop-opacity:0.81"/>
						<stop  offset="0.78" style="stop-color:#FFFFFF;stop-opacity:0.91"/>
						<stop  offset="0.91" style="stop-color:#FFFFFF;stop-opacity:0.98"/>
						<stop  offset="1" style="stop-color:#FFFFFF"/>
					</linearGradient>
					<polygon style="fill:url(#SVGID_00000017508639236420874780000006461868036750837898_);" points="69.8,268 575.8,81.4 
						764.6,593.4 258.6,780 					"/>
				</g>
			</g>
		</g>
		<g>
			<g>
				<defs>
					<path id="SVGID_00000115496313475462403040000011870368086392788110_" d="M399.6,593.8c-43.2,2.7-158.1-3.4-209.9-135.7
						c-49.9-127.6,49.7-225.4,132.8-241.4c10-1.9,28.7-1.4,31.1-4.8c-2.5-9-31.7-14.6-49.7-13.6c-197.7,10-235.3,208.9-145.5,315.1
						c82.5,97.6,197.4,90.8,241.4,82.4c0.3-0.1,0.6-0.3,0.7-0.5c0.2-0.5,0-1.1-0.5-1.3C399.9,593.9,399.7,593.8,399.6,593.8"/>
				</defs>
				<clipPath id="SVGID_00000152942975358237260120000013104376825986788503_">
					<use xlink:href="#SVGID_00000115496313475462403040000011870368086392788110_"  style="overflow:visible;"/>
				</clipPath>
				<g style="clip-path:url(#SVGID_00000152942975358237260120000013104376825986788503_);">
					
						<linearGradient id="SVGID_00000010271799951760167620000016414500280029832889_" gradientUnits="userSpaceOnUse" x1="10011.4219" y1="422.1707" x2="10013.8418" y2="422.1707" gradientTransform="matrix(107.1534 164.2476 164.2476 -107.1534 -1141989.375 -1598962.5)">
						<stop  offset="0" style="stop-color:#DEDEDE"/>
						<stop  offset="1.000000e-02" style="stop-color:#FFFFFF;stop-opacity:0"/>
						<stop  offset="0.17" style="stop-color:#FFFFFF;stop-opacity:0.25"/>
						<stop  offset="0.33" style="stop-color:#FFFFFF;stop-opacity:0.47"/>
						<stop  offset="0.49" style="stop-color:#FFFFFF;stop-opacity:0.66"/>
						<stop  offset="0.64" style="stop-color:#FFFFFF;stop-opacity:0.81"/>
						<stop  offset="0.78" style="stop-color:#FFFFFF;stop-opacity:0.91"/>
						<stop  offset="0.91" style="stop-color:#FFFFFF;stop-opacity:0.98"/>
						<stop  offset="1" style="stop-color:#FFFFFF"/>
					</linearGradient>
					<polygon style="fill:url(#SVGID_00000010271799951760167620000016414500280029832889_);" points="-102,328.5 355.1,30.3 
						649.7,482 192.7,780.2 					"/>
				</g>
			</g>
		</g>
		<g>
			<g>
				<defs>
					<path id="SVGID_00000031900669666787563380000011715366732788773252_" d="M133.6,279.8c20.9-38,87.6-131.7,227-104.6
						c134.5,26.2,163.7,162.7,132.8,241.4c-3.7,9.5-14.2,25-12.6,28.8c9,2.7,29.2-18.9,38.1-34.7c97.4-172.3-50.4-310.6-188.2-291.6
						C204.1,136.7,148.3,237.4,131.8,279c-0.1,0.3-0.1,0.6,0.1,0.9c0.3,0.5,0.9,0.6,1.4,0.3C133.4,280.2,133.5,280,133.6,279.8"/>
				</defs>
				<clipPath id="SVGID_00000019656688150547120650000012072962496882152636_">
					<use xlink:href="#SVGID_00000031900669666787563380000011715366732788773252_"  style="overflow:visible;"/>
				</clipPath>
				<g style="clip-path:url(#SVGID_00000019656688150547120650000012072962496882152636_);">
					
						<linearGradient id="SVGID_00000049936614480779608980000013132819737913832874_" gradientUnits="userSpaceOnUse" x1="10083.0645" y1="495.0779" x2="10085.4844" y2="495.0779" gradientTransform="matrix(-196.0941 2.4986 2.4986 196.0941 1976653.625 -122004.5234)">
						<stop  offset="0" style="stop-color:#DEDEDE"/>
						<stop  offset="1.000000e-02" style="stop-color:#FFFFFF;stop-opacity:0"/>
						<stop  offset="0.17" style="stop-color:#FFFFFF;stop-opacity:0.25"/>
						<stop  offset="0.33" style="stop-color:#FFFFFF;stop-opacity:0.47"/>
						<stop  offset="0.49" style="stop-color:#FFFFFF;stop-opacity:0.66"/>
						<stop  offset="0.64" style="stop-color:#FFFFFF;stop-opacity:0.81"/>
						<stop  offset="0.78" style="stop-color:#FFFFFF;stop-opacity:0.91"/>
						<stop  offset="0.91" style="stop-color:#FFFFFF;stop-opacity:0.98"/>
						<stop  offset="1" style="stop-color:#FFFFFF"/>
					</linearGradient>
					<polygon style="fill:url(#SVGID_00000049936614480779608980000013132819737913832874_);" points="87,5.3 626.3,-1.6 
						633.3,544.1 94,551 					"/>
				</g>
			</g>
		</g>
	</g>
</g>
</svg>
