<?xml version="1.0" encoding="utf-8"?>
<!-- Generator: Adobe Illustrator 26.0.1, SVG Export Plug-In . SVG Version: 6.00 Build 0)  -->
<svg version="1.1" id="Capa_1" xmlns="http://www.w3.org/2000/svg" xmlns:xlink="http://www.w3.org/1999/xlink" x="0px" y="0px"
	 viewBox="0 0 48.8 48.8" style="enable-background:new 0 0 48.8 48.8;" xml:space="preserve">
<style type="text/css">
	.st0{fill:#FFFFFF;}
</style>
<g>
	<g>
		<g>
			<path class="st0" d="M25.3,10h-1.5c0,0.4-0.1,0.7-0.3,1c-0.2,0.2-0.4,0.4-0.7,0.6c-0.2,0.1-0.6,0.2-1,0.3
				C21.4,12,20.9,12,20.6,12v1.3h3v9.5h-3v1.4h7.7v-1.4h-2.9L25.3,10L25.3,10z"/>
			<path class="st0" d="M35.2,30.6c0.5-0.3,1-0.6,1.4-1.1c1.8-1.8,2.2-4.4,1.4-6.6c2.2-1,3.7-3.1,3.7-5.6c0-2.5-1.5-4.7-3.7-5.6
				c0.8-2.2,0.4-4.8-1.4-6.6c-1.8-1.8-4.4-2.2-6.6-1.4c-1-2.2-3.1-3.7-5.6-3.7c-2.5,0-4.7,1.5-5.6,3.7c-2.2-0.8-4.8-0.4-6.6,1.4
				c-1.8,1.8-2.2,4.4-1.4,6.6c-2.2,1-3.7,3.1-3.7,5.6c0,2.5,1.5,4.7,3.7,5.6c-0.8,2.2-0.4,4.8,1.4,6.6c0.4,0.4,0.9,0.8,1.4,1.1
				L6.3,44.1l6.4-1.4l2.2,6l7.8-14.5c0.5,0.1,1.1,0.2,1.7,0.2s1.1-0.1,1.7-0.2l7.8,14.5l2.2-6l6.4,1.4L35.2,30.6z M24.4,30
				c-7.1,0-12.8-5.7-12.8-12.8S17.3,4.4,24.4,4.4c7.1,0,12.8,5.7,12.8,12.8C37.2,24.3,31.5,30,24.4,30z"/>
		</g>
	</g>
</g>
</svg>
