<?xml version="1.0" encoding="utf-8"?>
<!-- Generator: Adobe Illustrator 26.0.1, SVG Export Plug-In . SVG Version: 6.00 Build 0)  -->
<svg version="1.1" id="Capa_1" xmlns="http://www.w3.org/2000/svg" xmlns:xlink="http://www.w3.org/1999/xlink" x="0px" y="0px"
	 viewBox="0 0 458.6 423.1" style="enable-background:new 0 0 458.6 423.1;" xml:space="preserve">
<style type="text/css">
	.st0{fill:#FFFFFF;}
</style>
<g>
	<path class="st0" d="M158.7,136.3c-8.3-30.7-10.5-59.5-11-72c14.8-2.4,53.3-10.7,84.3-34.1c31,23.4,69.4,31.7,84.3,34.1
		c-0.5,12.4-2.7,41-10.9,71.7c-5.1,19-11.6,35.4-19.4,49.3c4.7,0.7,9.3,1.7,13.9,2.8c5.8-11.1,12.3-26,18.2-47.8
		c11.5-42.8,11.7-80.9,11.7-82.5c0-3.8-2.6-7-6-7.4c-0.5-0.1-52-6-87.8-35.3c-2.3-1.9-5.5-1.9-7.8,0c-35.9,29.3-87.3,35.2-87.8,35.3
		c-3.4,0.4-6,3.6-6,7.4c0,1.6,0.1,39.7,11.7,82.5c5.4,19.9,12.4,37.6,20.9,52.7c4.7-1.5,9.6-2.2,14.5-2.2
		C172.1,175.8,164.5,157.6,158.7,136.3z"/>
	<path class="st0" d="M225.6,150.3c-1.5,0-3-0.5-4.2-1.5l-23.2-19.9c-2.7-2.3-3-6.4-0.7-9.1s6.4-3,9.1-0.7l18.1,15.4l35.8-47
		c2.2-2.8,6.2-3.4,9-1.2c2.8,2.2,3.4,6.2,1.2,9l-39.9,52.4c-1.1,1.4-2.7,2.3-4.4,2.5C226,150.3,225.8,150.3,225.6,150.3z"/>
</g>
<g id="Capa_2_00000027562350335541319800000007285866965933510300_">
	<g id="Capa_1-2">
		<path class="st0" d="M458.6,273.5c-2.5,5.9-7.1,9-13,11.2c-10,3.6-19.8,7.6-29.5,11.6c-6,2.5-11.5,2.8-16.8-1.4
			c-1.1-0.6-2.4-0.6-3.4,0c-8,4.9-15.8,10.1-23.6,15.1c5.1,25.4-6.6,39.4-31.2,37.7c-5.1,18.5-12.1,23.9-32.2,24.6
			c-0.8,8.7-4.3,16.2-11.9,21.3c-7.4,5-15.5,5.6-24.3,3.1c-2.5,12.4-9.5,20.5-22,23.2c-12.7,2.7-21.5-4.8-31-12.1
			c-1.8,2.1-3.5,4-5.2,6c-6.7,7.8-15.1,11.1-25.2,8.6s-16-9.2-18.2-19.4c-0.2-1.1-1.6-2.7-2.5-2.7c-14.4-0.7-22.3-8.6-25.1-22.3
			c0-0.1-0.1-0.2-0.2-0.4c-17.1-2.2-24-8-26.8-23c-23.6-3.9-32.4-17.8-23.5-37.9c-1.5-1.1-3.1-2.4-4.8-3.5
			c-8.7-5.5-17.3-11.1-26.2-16.4c-1.3-0.8-3.4-0.3-5.1-0.3c-3.9,0.1-8.2,1.6-11.6,0.4c-12.2-4.2-24.1-9.4-36.2-14
			c-4.6-1.8-6.8-5.5-8.9-9.5v-7.2c3-7.1,6-14.2,8.9-21.3c12.4-31.4,24.7-62.7,37.1-94c3.8-10.2,10.5-13.1,20.7-9.1
			c11,4.3,21.9,8.6,32.9,12.9c6.7,2.6,10.3,7.3,10.3,14.7c0.2,1.3,0.9,2.4,2.1,3.1c8.4,4.2,17.6,6.3,27,6.4
			c18.7,0.3,37.7,0,55.9,5.9c1.1,0.3,2.8-0.3,3.8-1c1.6-1.3,3.1-2.8,4.5-4.3c9.1-9.5,20.2-12.8,33-10.6c7.2,1.2,14.4,2.3,21.6,3.5
			c4.8,0.8,7.5,3.7,7.1,7.6c-0.4,4.1-3.9,6.5-9,5.8c-8.1-1.1-16.2-2.5-24.3-3.8c-6.5-1.2-13.1,1-17.6,5.7
			c-19.4,19.3-39.9,37.3-62.8,52.4c-4,2.6-3.9,5.1-0.2,8.2c7.8,6.4,16.6,6.9,25.8,4.2c11.9-3.6,21.5-10.8,30.7-18.7s16.4-7.7,25,0.7
			c18.3,17.8,39.9,26.3,65.5,23c5.2-0.7,9.1,0.6,13.2,3.7c17.1,12.9,34.5,25.6,52,38.5l28.9-18.5c-12.8-32.3-25.4-64.4-38.2-96.8
			c-4.5,1.6-8.6,2.8-12.5,4.6c-13.6,6.2-27.5,7.2-42,3.9c-3.3-0.8-6.8-1-10.1-1.7c-4.5-0.8-6.9-3.7-6.4-7.7s3.5-6.2,8.2-5.6
			c6.1,0.8,12.1,1.7,18.1,2.8c7.8,1.5,15.1,0.3,22.4-2.5c5.7-2.2,11.4-4.2,17-6.3c0.1-10.5,2.2-13.7,12-17.7
			c10.7-4.3,21.3-8.5,32-12.6c8.9-3.5,15.9-0.4,19.5,8.5c5.6,14,11.1,28,16.6,42c1.9,4.9,0.8,8.5-3.1,10.2s-7.4-0.2-9.5-5.5
			c-5.6-14-11.1-28-16.7-42c-0.1-0.3-0.3-0.5-0.7-1.2L362,167.9l46.2,116.9l37-14.6l-15.5-39.4c-0.4-1.1-1-2.2-1.3-3.3
			c-1.1-3.7,0.5-7.3,3.8-8.5c3.3-1.4,7.2,0.2,8.5,3.5c0,0,0,0,0,0.1c1.6,3.5,2.9,7.2,4.4,10.8c4.5,11,9,22,13.5,33V273.5z
			 M228.1,398c5,3,9.3,6.3,14.2,8.2c5.9,2.3,12.6-1.1,15.3-6.8c2.8-5.7,1.4-11.4-3.8-15.4c-3.7-2.8-7.4-5.6-10.9-8.6
			c-3.3-2.8-3.7-6.5-1.3-9.5s6-3.4,9.6-1c1.2,0.8,2.4,1.8,3.6,2.7c6.5,4.9,12.9,10.1,19.7,14.7c6,4.1,14.1,2.6,18.3-3.4
			c4.1-5.9,2.7-13.4-3.3-18.1c-5.8-4.5-11.6-8.9-17.4-13.4c-3.2-2.6-3.7-6.6-1.4-9.5s6-3.6,9.5-1.1c3.8,2.7,7.4,5.6,11,8.4
			c5.1,3.9,10.1,8,15.5,11.4c6.1,3.9,14.2,2.2,18.2-3.9c4-6,2.6-13.1-3.4-17.7c-6.6-5.1-13.3-10.1-19.8-15.3c-4.4-3.5-4-9,0.6-11.5
			c3.1-1.7,5.7-0.6,8.2,1.3c9.2,7.1,18.4,14.2,27.8,21.2c7.3,5.5,15.3,4.6,20.1-2c4.5-6.1,2.7-14.4-4.2-19.6
			c-16.5-12.3-33.1-24.5-49.8-36.6c-1.8-1.2-3.9-1.8-6.1-1.7c-28.9,2.6-53.4-6.8-74.1-26.6c-3-2.9-4.7-3.2-8-0.3
			c-10.1,9-21.1,16.7-34.1,20.8c-13.2,4.2-25.9,3.5-37.5-5c-12.9-9.4-12.3-22.7,0.5-31.9s25-19.3,37.5-29c1.3-1.2,2.5-2.4,3.6-3.8
			c-10.7-0.9-20-1.7-29.4-2.4c-17.3-1.2-35.1,1-51-8.3c-0.2-0.1-0.6,0-1.2,0.1c-12.8,32.6-25.8,65.4-38.8,98.4l36.1,22.9
			c3.8-4.4,7.2-8.7,11-12.6c6.7-6.9,14.9-9.1,24.2-6.6s15,8.8,17.3,18.2c0.3,1.3,0.7,2.5,1,3.8c6.9-0.2,12.9,1.5,18.1,5.9
			s7.8,10.3,8.8,16.8c16.3,1.1,23,6.9,27.2,22.9C233.4,353.9,244.5,380.2,228.1,398z M50.4,284.9l46.1-117l-37-14.6L13.4,270.2
			L50.4,284.9z M130.1,298.6c-2.5,1.4-5.7,2.2-7.5,4.1c-6.2,6.7-12.1,13.6-17.7,20.7c-3.4,4.5-2.7,10.9,1.6,14.6
			c4.2,3.7,10.7,4,14.6-0.1c6.5-7,12.6-14.3,18.5-21.8c2.6-3.3,2.5-7.3,0.4-11S134.8,299.5,130.1,298.6z M129.2,352.2
			c0.6,4.8,3.1,8.9,7.2,10.6c4.4,2,9.6,0.9,12.6-2.8c5.6-6.3,11.2-12.8,16.5-19.4c4.2-5.2,3.7-11.6-0.9-15.6s-11.4-3.6-15.9,1.6
			c-5.4,6.1-10.8,12.4-15.9,18.7C131.2,347.3,130.4,349.9,129.2,352.2L129.2,352.2z M223.2,379.4c-0.7-4.8-3.4-8.7-7.6-10.4
			c-4.3-1.8-9.2-0.6-12.2,2.9c-5.6,6.2-10.9,12.6-16.3,19c-4.4,5.4-4.1,11.9,0.6,16c4.8,4.2,11.5,3.6,16.2-1.7
			c5.3-6,10.6-12.1,15.6-18.4C221.2,384.6,222,381.9,223.2,379.4L223.2,379.4z M196.1,356.5c-0.7-4.9-3.3-8.8-7.4-10.5
			c-4.2-1.9-9.2-0.7-12.2,2.8c-5.7,6.3-11.2,12.8-16.6,19.4c-4.4,5.4-3.9,11.8,1,15.9s11.4,3.3,15.9-1.9c5.3-6,10.6-12.1,15.6-18.4
			C194.1,361.8,194.9,359,196.1,356.5z"/>
	</g>
</g>
</svg>
