<?xml version="1.0" encoding="utf-8"?>
<!-- Generator: Adobe Illustrator 26.0.1, SVG Export Plug-In . SVG Version: 6.00 Build 0)  -->
<svg version="1.1" id="Capa_1" xmlns="http://www.w3.org/2000/svg" xmlns:xlink="http://www.w3.org/1999/xlink" x="0px" y="0px"
	 viewBox="0 0 422.7 379.1" style="enable-background:new 0 0 422.7 379.1;" xml:space="preserve">
<style type="text/css">
	.st0{fill:#FFFFFF;}
</style>
<g id="Capa_2_00000137854868106021997770000017295428428471779231_">
	<g id="Capa_1-2">
		<path class="st0" d="M422.7,285.4c-0.9,2.7-2.1,5.3-3.3,7.9c-5.3,9.2-13.5,13.4-23.9,13.4H270.1c2,11.4,3.8,22.4,5.8,33.3
			c0.1,0.8,1.9,1.8,2.9,1.9c3.6,0.3,7.2,0,10.7,0.4c10.1,1,17.5,10.1,16.4,20.2c-0.9,8.8-8,15.8-16.8,16.5c-1.1,0.1-2.2,0.1-3.3,0.1
			c-49.7,0-99.3,0-149,0c-11,0-18.3-5.9-20-15.8s5.4-19.6,15.3-20.9c3.8-0.5,7.7-0.1,11.5-0.5c1.3-0.3,2.4-1.1,3.1-2.2
			c0.7-1.1,0.6-2.6,0.8-4l4.9-28.9h-16.7c-6.6,0-13.2,0-19.8,0c-5.5,0-8.5-2.2-8.6-6.2s3-6.2,8.4-6.2h276.6
			c14.2,0,19.2-5.6,17.5-20.4H11.7c0.8,4.6,0.8,9.3,2.5,13.2c2.2,5.3,7.2,7.1,12.9,7.1c18.2,0,36.3,0,54.5,0c1.4,0,2.8,0,4.1,0.1
			c2.9,0.1,5.2,2.5,5.3,5.4c0.5,3-1.4,5.9-4.4,6.5c-1.5,0.3-3,0.4-4.5,0.4c-17.7,0-35.5,0-53.2,0c-15.4,0-23.7-6.1-28.4-20.7
			c-0.1-0.2-0.3-0.4-0.5-0.6V21.2c0.5-1.2,1-2.5,1.5-3.7c4-10.2,11.3-16,22.2-17.1c1.6-0.1,3.3-0.2,5-0.1h255.9c1.4,0,2.8,0,4.1,0.1
			c3.6,0.3,5.5,2.4,5.9,5.8c0.4,3.2-2.2,5.9-5.7,6.4c-1.8,0.2-3.6,0.2-5.4,0.2H29.2c-12.3,0-16.8,4.5-16.8,17V261h398v-4.5
			c0-76,0-151.9,0-227.9c0-11.1-4.9-16-16.2-16h-73.5c-6.7,0-9.6-2-9.5-6.4c0.1-4.3,2.8-6,9.4-6c23.2,0,46.5,0.5,69.8-0.2
			c16.2-0.5,27.4,5.2,32.3,21.2V285.4z M257.5,306.9h-92.4c-2,11.6-4,23.1-6,35h5.1c16.8,0,33.6,0,50.4,0c1.6-0.1,3.3,0.1,4.9,0.4
			c3.1,0.8,4.5,3,4.3,6.2c0.1,2.7-1.9,5.1-4.7,5.5c-1.6,0.2-3.3,0.3-4.9,0.3h-75.1c-1.5,0-3,0-4.5,0.2c-3.5,0.5-5.5,2.7-5.5,6.1
			s2.1,5.6,5.6,6c1.1,0.1,2.2,0.1,3.3,0.1h146.5c1.4,0.1,2.7,0,4.1-0.2c3.3-0.6,5.5-3.7,4.9-6.9c-0.4-2.4-2.2-4.3-4.6-4.8
			c-1.6-0.3-3.3-0.4-4.9-0.4c-12.2,0-24.5,0-36.7-0.1c-4,0-6.6-2.4-6.7-5.8s2.4-6.2,6.6-6.5c1.8-0.1,3.6,0,5.4-0.1h11.1
			C261.5,329.8,259.5,318.4,257.5,306.9z"/>
		<path class="st0" d="M334.9,176.9c-9.2,18-18,35.4-26.9,52.7c-0.4,0.9-0.9,1.7-1.3,2.6c-1.3,2.9-3.1,5.3-6.6,5.3
			c-3.4-0.1-5-2.4-6.3-5.1c-7-14-14.2-27.9-21.3-41.9c-0.7-1.3-1.4-2.6-2.5-4.6c-2.9,5.7-5.8,10.8-8.2,16.1c-2,4.3-4.9,6.1-9.7,5.9
			c-7-0.3-14-0.1-21-0.1c-4.6,0-7.3-2.2-7.4-6c-0.1-3.9,2.6-6.4,7.4-6.4c5.6-0.1,11.3-0.1,16.9,0c2.4,0.1,3.7-0.8,4.7-2.9
			c3.5-7.3,7.3-14.5,10.9-21.7c1.4-2.7,3.1-5,6.4-5s5,2.3,6.4,5c7.7,15.3,15.5,30.6,23.7,46.6c1-1.8,1.7-3,2.3-4.2
			c8.6-16.9,17.2-33.8,25.8-50.7c1.5-2.9,3-5.7,6.8-5.7s5.3,2.9,6.7,5.8c4.9,9.8,10.1,19.5,14.9,29.4c1.3,2.7,2.9,3.5,5.7,3.4
			c5.5-0.2,11-0.1,16.5,0c4.4,0.1,7.1,2.6,7,6.3c-0.1,3.6-2.6,6-6.9,6c-7.4,0.1-14.9-0.1-22.3,0.1c-4.1,0.1-6.7-1.4-8.5-5.1
			c-3.5-7.3-7.3-14.5-11-21.7C336.6,179.9,335.9,178.7,334.9,176.9z"/>
		<path class="st0" d="M341.5,90.9c0-12.5,0-25,0-37.5c0-7.2,1.8-8.9,9.1-8.9c9.1,0,18.1,0,27.2,0c6.1,0,8.1,2,8.1,8.2
			c0,25.8,0,51.7,0,77.5c0,6.2-2,8.2-8.1,8.2c-9.5,0-19,0-28.4,0c-5.9,0-7.9-2-7.9-7.9C341.5,117.3,341.5,104.1,341.5,90.9z
			 M373.2,125.9V57.2h-19.1v68.7L373.2,125.9z"/>
		<path class="st0" d="M223.7,99.7c0-10.4,0-20.9,0-31.3c0-5.3,2.2-7.5,7.5-7.5c9.8,0,19.5,0,29.3,0c5.5,0,7.7,2.3,7.7,7.8
			c0,20.6,0,41.2,0,61.8c0,5.8-2.2,7.9-8,7.9c-9.5,0-19,0-28.4,0c-6.1,0-8-2-8-8.2C223.7,120.1,223.7,109.9,223.7,99.7z M236.4,73.4
			v52.4h19.2V73.4L236.4,73.4z"/>
		<path class="st0" d="M327.2,108.7c0,7.4,0,14.9,0,22.3c-0.1,5.3-2.2,7.4-7.6,7.4c-9.8,0-19.5,0-29.3,0c-5.3,0-7.5-2.2-7.5-7.6
			c-0.1-14.9-0.1-29.7,0-44.6c0-5.5,2-7.6,7.5-7.6c9.9-0.1,19.8-0.1,29.7,0c5.2,0,7.2,2.2,7.3,7.3
			C327.3,93.6,327.2,101.2,327.2,108.7z M295.4,125.9h19.1V91.4h-19.1V125.9z"/>
		<path class="st0" d="M112.9,126.9H45.7c-1.2,0.1-2.5,0-3.7-0.1c-3.1-0.5-5.4-2.5-5-5.5c0.3-2.2,2.1-4.4,3.8-6.1
			c0.8-0.8,2.9-0.7,4.3-0.7c45.4,0,90.8,0,136.1,0c1.2-0.1,2.5,0.1,3.7,0.4c3.1,1,4.7,3.2,4.4,6.6c-0.4,3.2-2.3,4.9-5.3,5.3
			c-1.2,0.1-2.5,0.1-3.7,0.1L112.9,126.9z"/>
		<path class="st0" d="M112.9,192.3H46.1c-1.4,0.1-2.8,0-4.1-0.1c-3.3-0.3-5.7-3.3-5.4-6.6c0.3-2.5,2-4.5,4.4-5.2
			c1.6-0.4,3.2-0.5,4.9-0.5c44.7,0,89.3,0,134.1,0c1.6-0.1,3.3,0.1,4.9,0.4c3.2,0.9,4.7,3.2,4.3,6.6c-0.1,2.9-2.5,5.2-5.4,5.3
			c-1.4,0.1-2.7,0.1-4.1,0.1L112.9,192.3z"/>
		<path class="st0" d="M112.7,56.9H46.3c-1.5,0.1-3,0-4.5-0.2c-3.1-0.5-5.3-2.7-4.8-5.6c0.3-2.2,2.3-4.3,4-6
			c0.9-0.8,2.9-0.6,4.4-0.6c45.1,0,90.2,0,135.3,0c1.6-0.1,3.3,0.1,4.9,0.6c2.8,1,4,3.2,3.8,6.2c0,2.7-2.1,5-4.8,5.4
			c-1.5,0.2-3,0.3-4.5,0.2L112.7,56.9z"/>
		<path class="st0" d="M86,89.8c-14.2,0-28.3,0-42.5,0c-4.2,0-6.8-2.4-6.9-6s2.6-6.1,6.7-6.3c1.1-0.1,2.2,0,3.3,0h79.2
			c0.8,0,1.7,0,2.5,0c4.8,0.1,7.7,2.4,7.7,6.2s-2.8,6.2-7.6,6.2C114.3,89.8,100.2,89.8,86,89.8z"/>
		<path class="st0" d="M139.8,147.5c13.9,0,27.8,0,41.6,0c5.1,0,7.9,2.3,7.8,6.4c-0.1,3.9-2.8,6-7.8,6c-27.9,0-55.8,0-83.7,0
			c-4.8,0-7.7-2.4-7.7-6.2s2.9-6.2,7.7-6.2C111.8,147.5,125.8,147.5,139.8,147.5z"/>
		<path class="st0" d="M75.8,212.7c10.6,0,21.2,0,31.7,0c4.8,0,7.5,2.4,7.4,6.3c-0.1,3.8-2.7,6.1-7.3,6.1c-21.2,0-42.3,0-63.5,0
			c-4.7,0-7.6-2.5-7.5-6.3s2.9-6,7.8-6C54.9,212.7,65.3,212.7,75.8,212.7z"/>
		<path class="st0" d="M55.3,159.9H45c-5.5,0-8.4-2.3-8.3-6.3s2.9-6.1,8.1-6.1c7.1,0,14.3,0,21.4,0c5.1,0,8,2.4,8,6.3
			s-3,6.1-8.2,6.1C62.5,159.9,58.9,159.9,55.3,159.9z"/>
		<path class="st0" d="M170.2,89.8c-3.8,0-7.7,0.1-11.5,0s-6.5-2.6-6.6-5.9c-0.1-3.4,2.6-6.2,6-6.3c0.1,0,0.2,0,0.3,0
			c8.2-0.2,16.5-0.2,24.7,0c3.3-0.2,6.1,2.4,6.3,5.7c0,0.2,0,0.3,0,0.5c0,3.7-2.5,6-6.8,6.1S174.3,89.8,170.2,89.8z"/>
	</g>
</g>
</svg>
