<?xml version="1.0" encoding="utf-8"?>
<!-- Generator: Adobe Illustrator 26.0.1, SVG Export Plug-In . SVG Version: 6.00 Build 0)  -->
<svg version="1.1" id="Capa_1" xmlns="http://www.w3.org/2000/svg" xmlns:xlink="http://www.w3.org/1999/xlink" x="0px" y="0px"
	 viewBox="0 0 449.7 417.8" style="enable-background:new 0 0 449.7 417.8;" xml:space="preserve">
<style type="text/css">
	.st0{fill:#FFFFFF;}
</style>
<g id="Capa_2_00000002367310773764408550000015603120750443050156_">
	<g id="Capa_1-2">
		<path class="st0" d="M235.1,417.8c-48.7-15.9-97.4-31.7-146.2-47.6c-17.2-5.8-35.9-4.9-52.5,2.4c-3.6,1.7-7,3.8-10.1,6.4
			c-5.3,4.2-10.2,9-15.6,13.1c-1.6,1.2-5,1.8-6.7,0.9s-2.7-3.7-3.8-5.7c-0.4-0.7-0.1-1.8-0.1-2.8V284.3c0-6.9,0.6-7.8,7.1-10.1
			c26.4-9.7,52.8-19.2,79.1-29.2c20.8-7.8,42.1-8.9,63.9-6.1c31.3,3.9,62.6,7.3,94,10.9c17.2,2,34.4,4,51.6,5.8c2.7,0.3,5.4,0,8-1
			c15.5-6.2,31.1-12.2,46.2-19.1c16.8-7.7,31.7-6.9,45,7.2c3.2-2,6.2-4.1,9.4-6c14-8.8,31.5-5.5,40.3,7.4c9,13.2,5.8,30.3-7.8,40.1
			c-57.7,41.9-115.5,83.6-173.3,125.3c-5.3,3.8-12.2,5.5-18.3,8.2H235.1z M13,372.8c4.6-3.4,8.2-6.9,12.5-9.1
			c22.6-11.7,46-12.9,70.1-4.9c44.4,14.7,88.9,29.2,133.3,43.9c10,3.3,19.1,2.6,27.7-3.7c57.6-41.7,115.1-83.5,172.7-125.3
			c2.5-1.8,4.5-4.2,5.9-6.9c3.1-5.8,1.4-13.4-3.3-17.9c-5.1-5.1-13.1-6-19.3-2.2c-7.8,4.7-15.3,9.9-22.9,14.9
			c-40.6,26.7-81.1,53.4-121.6,80.1c-4.4,2.9-7.9,2.8-12.2,0c-14.2-9.1-28.5-17.9-42.9-26.6c-2.3-1.4-5-2.1-7.7-2.2
			c-10.8,0-21.6,0.4-32.5,0.6c-1.7,0.1-3.4,0-5-0.4c-3.1-0.6-5.1-3.5-4.7-6.6c0.1-3.1,2.6-5.6,5.7-5.8c1.4-0.1,2.8-0.2,4.2-0.1
			L293,298c9.2-0.2,15.6-5.9,16-14.1c0.4-7.9-5.4-14.3-14.2-15.4c-13.5-1.7-27-3.2-40.5-4.7c-34.4-3.9-68.8-7.6-103.2-11.9
			c-19.6-2.4-38.8-2.6-57.6,4.3c-25.6,9.5-51.3,18.9-77,28.2c-2.7,1-3.4,2.4-3.4,5.1c0.1,13.9,0.1,27.9,0.1,41.8L13,372.8z
			 M320.7,291.7l63-41.4c-5.6-6.8-13.8-8.7-22.4-5.3s-17.1,7-25.7,10.6c-6.9,2.9-13.8,5.8-21.2,8.9
			C321.3,272.4,323,281.2,320.7,291.7L320.7,291.7z M290,311.9h-55.5l-0.2,1.2c8.6,5.4,17.2,10.8,25.9,16c1.2,0.5,2.6,0.4,3.7-0.2
			C272.6,323.4,281.2,317.6,290,311.9z"/>
		<path class="st0" d="M252.7,0c6.9,1.5,14,2.5,20.7,4.5c47.1,14,76.6,57.8,73,108.2c-3.3,45.6-40.4,84.8-87.1,91.8
			c-64.1,9.7-121.1-41.9-117.9-106.7c2.6-50.6,41.6-91.8,92-97c0.9-0.2,1.7-0.5,2.6-0.8H252.7z M334.1,103c0.6-48-39.7-89.3-87.8-90
			c-50.3-0.7-91.5,38.7-92.1,87.9c-0.6,50.8,38.7,91.2,89.5,91.9C292.9,193.6,333.5,153.2,334.1,103z"/>
		<path class="st0" d="M237.8,50.6c0-1.9-0.1-3.4,0-5c0.1-3.8,2.2-6,5.9-6.5c3.2-0.4,6.2,1.8,6.6,5.1c0,0.4,0.1,0.7,0,1.1
			c-0.3,4.8,2.2,6,5.9,7.6c11,4.8,17,13.5,18.1,25.4c0.5,5.1-1.6,8.2-5.6,8.6s-6.3-2.1-7.1-7.3c-1.4-9.5-7.6-16-16-16.5
			c-8.7-0.5-15.9,4.4-18.3,12.5c-2.7,9.1,2.4,18.7,11.6,21.5c1.3,0.4,2.5,0.6,3.9,0.7c16.3,1.4,26.6,8.8,30.5,22
			c4.6,15.2-3.4,31.4-18.3,37c-2.6,1-4.4,1.8-4.8,5.1c-0.2,2.8-2.6,4.9-5.4,4.7c-0.3,0-0.7-0.1-1-0.2c-2.2-0.6-5.2-3-5.6-5
			c-0.6-2.9-2.1-3.6-4.3-4.5c-12.1-4.7-18.7-13.6-20.1-26.5c-0.4-3.5,0.5-6.6,4.1-7.9c4.4-1.7,8.2,1.2,8.8,6.6
			c1.2,10.7,8.1,16.9,18.5,16.6c9.1-0.2,16.5-8,16.5-17.3c0-9.1-7-16.6-16-17.3c-16.6-1-28-9.7-31.2-24c-3.6-15.7,5-30.2,21.1-35.9
			L237.8,50.6z"/>
	</g>
</g>
</svg>
